<svg width="23" height="23" viewBox="0 0 23 23" fill="none" xmlns="http://www.w3.org/2000/svg">
<g clip-path="url(#clip0_143_119)">
<path fill-rule="evenodd" clip-rule="evenodd" d="M23.0002 11.5C23.0002 17.8513 17.947 23 11.7137 23C5.48037 23 0.427246 17.8513 0.427246 11.5C0.427246 5.14873 5.48037 0 11.7137 0C17.947 0 23.0002 5.14873 23.0002 11.5ZM12.1182 8.48981C11.0204 8.95505 8.82638 9.91798 5.53615 11.3786C5.00187 11.5951 4.72199 11.8069 4.69651 12.014C4.65345 12.3639 5.08358 12.5017 5.66931 12.6894C5.74898 12.7149 5.83153 12.7414 5.91617 12.7694C6.49244 12.9603 7.26762 13.1836 7.6706 13.1924C8.03615 13.2005 8.44414 13.0469 8.89457 12.7318C11.9687 10.6174 13.5556 9.54865 13.6553 9.52561C13.7256 9.50936 13.823 9.48892 13.8889 9.54869C13.9549 9.60845 13.9485 9.72164 13.9415 9.752C13.8989 9.93709 12.2104 11.5365 11.3367 12.3642C11.0643 12.6222 10.8711 12.8053 10.8316 12.8471C10.7431 12.9407 10.6529 13.0293 10.5662 13.1144C10.0309 13.6403 9.62939 14.0346 10.5885 14.6786C11.0493 14.9881 11.4182 15.244 11.7861 15.4993C12.1879 15.7781 12.5887 16.0562 13.1072 16.4025C13.2393 16.4908 13.3655 16.5824 13.4884 16.6717C13.956 17.0114 14.3761 17.3165 14.8952 17.2679C15.1967 17.2396 15.5083 16.9506 15.6665 16.0888C16.0404 14.0522 16.7753 9.63935 16.9452 7.82093C16.9601 7.66162 16.9413 7.45772 16.9263 7.36822C16.9113 7.27871 16.8799 7.15119 16.7657 7.05678C16.6305 6.94498 16.4217 6.9214 16.3283 6.92308C15.9038 6.9307 15.2525 7.16145 12.1182 8.48981Z" fill="#0078FF"/>
</g>
<defs>
<clipPath id="clip0_143_119">
<rect width="22.5729" height="23" fill="white" transform="translate(0.427246)"/>
</clipPath>
</defs>
</svg>
